<?xml version="1.0" encoding="utf-8"?>
<svg width="128px" height="128px" viewBox="0 0 128 128" version="1.1" xmlns="http://www.w3.org/2000/svg">
  <title>Ybug-logo</title>
  <desc>Created with Sketch.</desc>
  <g id="V2B" stroke="none" stroke-width="1" fill="none" fill-rule="evenodd" style="" transform="matrix(2.42584, 0, 0, 2.42584, -3.325608, -0.284785)">
    <g id="Ybug-pricing_V1C" transform="translate(-158.000000, -26.000000)">
      <g id="Ybug-logo" transform="translate(153.000000, 21.000000)">
        <g id="symbol" transform="matrix(0.79476, -0.258233, 0.258233, 0.79476, 6.166872, 18.236258)" style=""/>
        <path d="M 25.339 47.531 L 18.965 51.556 L 18.965 43.03 C 15.854 39.676 13.951 35.183 13.951 30.246 C 13.951 19.862 22.37 11.444 32.754 11.444 C 43.138 11.444 51.556 19.862 51.556 30.246 C 51.556 40.632 43.138 49.049 32.754 49.049 C 30.12 49.049 27.614 48.509 25.339 47.531 Z M 29.822 31.017 C 29.944 32.304 31.025 33.287 32.317 33.287 L 33.19 33.287 C 34.483 33.287 35.563 32.304 35.686 31.017 L 36.879 18.482 C 36.887 18.404 36.891 18.325 36.891 18.245 C 36.891 16.86 35.769 15.738 34.384 15.738 L 31.124 15.738 C 31.045 15.738 30.965 15.742 30.886 15.749 C 29.508 15.88 28.497 17.104 28.628 18.482 L 29.822 31.017 Z M 32.754 44.662 C 35.177 44.662 37.141 42.698 37.141 40.275 C 37.141 37.852 35.177 35.888 32.754 35.888 C 30.331 35.888 28.366 37.852 28.366 40.275 C 28.366 42.698 30.331 44.662 32.754 44.662 Z" id="Symbol" style="fill: rgb(48, 35, 174);" transform="matrix(0.951057, -0.309017, 0.309017, 0.951057, -8.130963, 11.663104)"/>
      </g>
    </g>
  </g>
</svg>